<svg width="195" height="35" xmlns="http://www.w3.org/2000/svg">
  <g fill="#7159C1" fill-rule="nonzero">
    <path d="M7.973 13.496L19 20.304l-7.634 6.361L.43 19.545l7.544-6.05zm22.01 12.388v2.41l-10.938 6.54v.023l-.023-.022-.022.022v-.022l-10.915-6.54v-2.411l3.281 2.143L19 21.687v-.044l.022.022.023-.022v.044l7.656 6.34 3.281-2.143zM11.365.348L19 6.71 7.973 13.496.43 7.469 11.366.349zm18.66 13.148l7.545 6.049-10.915 7.12L19 20.304l11.027-6.808zM26.657.348l10.915 7.12-7.544 6.028L19 6.71 26.656.348zM61.708 13.14v5.157h4.545c.902 0 1.58-.104 2.03-.313.8-.364 1.199-1.085 1.199-2.161 0-1.163-.387-1.945-1.16-2.344-.433-.226-1.084-.338-1.952-.338h-4.662zm5.495-3.333c1.346.026 2.38.191 3.106.495.724.304 1.339.75 1.842 1.341.417.486.747 1.025.99 1.615.243.59.364 1.263.364 2.018 0 .912-.23 1.808-.69 2.689-.46.88-1.22 1.504-2.279 1.868.886.356 1.513.862 1.882 1.517.369.656.553 1.656.553 3.002v1.289c0 .876.035 1.471.105 1.783.104.495.347.86.729 1.094V29H69.39a13.768 13.768 0 01-.26-1.029 9.45 9.45 0 01-.17-1.653l-.026-1.784c-.017-1.224-.241-2.04-.67-2.448-.43-.408-1.235-.612-2.416-.612h-4.14V29h-3.92V9.807h9.414zm15.82 16.576c1.086 0 1.919-.386 2.5-1.159.582-.773.873-1.87.873-3.294s-.291-2.52-.873-3.288c-.581-.768-1.414-1.152-2.5-1.152-1.085 0-1.92.384-2.506 1.152-.586.768-.879 1.864-.879 3.288 0 1.423.293 2.521.879 3.294.586.773 1.421 1.159 2.506 1.159zm7.266-4.453c0 2.083-.599 3.865-1.797 5.345-1.198 1.48-3.016 2.22-5.456 2.22-2.439 0-4.257-.74-5.455-2.22-1.198-1.48-1.797-3.262-1.797-5.345 0-2.049.599-3.824 1.797-5.326 1.198-1.502 3.016-2.252 5.455-2.252 2.44 0 4.258.75 5.456 2.252 1.198 1.502 1.797 3.277 1.797 5.326zm11.133-2.032a3.293 3.293 0 00-.534-1.432c-.417-.573-1.063-.86-1.94-.86-1.25 0-2.105.621-2.565 1.863-.243.66-.365 1.536-.365 2.63 0 1.042.122 1.88.365 2.513.443 1.18 1.276 1.77 2.5 1.77.868 0 1.484-.234 1.849-.702.364-.47.586-1.077.664-1.823h3.789c-.087 1.128-.495 2.196-1.224 3.203-1.163 1.623-2.886 2.435-5.17 2.435-2.282 0-3.962-.677-5.038-2.031-1.077-1.355-1.615-3.112-1.615-5.274 0-2.44.595-4.336 1.784-5.69 1.19-1.354 2.83-2.031 4.922-2.031 1.78 0 3.235.4 4.368 1.198 1.133.798 1.804 2.209 2.012 4.231h-3.802zm6.315-10.026h3.646v10.339l4.622-5.339h4.597l-4.961 5.43L120.797 29h-4.48l-3.398-6.068-1.536 1.602V29h-3.646V9.872zm20.469 7.618c-.86 0-1.526.269-1.999.807-.473.538-.77 1.267-.892 2.187h5.768c-.06-.98-.358-1.725-.892-2.233-.533-.508-1.195-.761-1.985-.761zm0-3.06c1.18 0 2.244.221 3.19.664.946.442 1.727 1.141 2.344 2.096.555.842.915 1.819 1.08 2.93.096.65.135 1.588.118 2.812h-9.714c.052 1.424.5 2.422 1.341 2.995.512.356 1.129.534 1.85.534.763 0 1.384-.217 1.861-.651.26-.234.49-.56.69-.977h3.79c-.096.842-.535 1.697-1.316 2.565-1.215 1.38-2.917 2.07-5.104 2.07-1.806 0-3.398-.58-4.779-1.744-1.38-1.163-2.07-3.056-2.07-5.677 0-2.457.623-4.34 1.868-5.651 1.246-1.31 2.863-1.966 4.85-1.966zm7.773 3.15v-2.642h1.98v-3.959h3.671v3.959h2.305v2.643h-2.305v7.5c0 .581.074.944.222 1.087.147.143.599.215 1.354.215a10.413 10.413 0 00.729-.026v2.773l-1.758.065c-1.753.061-2.951-.243-3.594-.911-.416-.425-.625-1.08-.625-1.966V17.58h-1.979zm14.531-4.44v4.232h4.714c.842 0 1.526-.158 2.05-.475.526-.317.788-.879.788-1.686 0-.894-.347-1.484-1.041-1.77-.6-.2-1.363-.3-2.292-.3h-4.219zm0 7.41v5.117h4.714c.842 0 1.497-.113 1.966-.339.85-.417 1.276-1.215 1.276-2.396 0-.998-.412-1.684-1.237-2.057-.46-.208-1.107-.317-1.94-.326h-4.779zm5.495-10.743c2.353.035 4.02.716 5 2.045.59.816.886 1.792.886 2.93 0 1.171-.296 2.113-.886 2.825-.33.4-.816.764-1.458 1.094.98.355 1.72.92 2.22 1.692.5.773.749 1.71.749 2.813 0 1.137-.287 2.157-.86 3.06a5.304 5.304 0 01-3.548 2.474c-.838.173-1.747.26-2.728.26h-8.698V9.807h9.323zm15.938 16.576c1.085 0 1.918-.386 2.5-1.159.581-.773.872-1.87.872-3.294s-.29-2.52-.872-3.288c-.582-.768-1.415-1.152-2.5-1.152s-1.92.384-2.507 1.152c-.586.768-.879 1.864-.879 3.288 0 1.423.293 2.521.88 3.294.585.773 1.42 1.159 2.506 1.159zm7.265-4.453c0 2.083-.599 3.865-1.797 5.345-1.197 1.48-3.016 2.22-5.455 2.22-2.44 0-4.258-.74-5.456-2.22-1.198-1.48-1.797-3.262-1.797-5.345 0-2.049.6-3.824 1.797-5.326 1.198-1.502 3.016-2.252 5.456-2.252 2.439 0 4.258.75 5.455 2.252 1.198 1.502 1.797 3.277 1.797 5.326zm1.263 7.07l4.844-7.188-4.635-6.979h4.544l2.37 4.115 2.317-4.115h4.415l-4.662 6.914L194.508 29h-4.623l-2.447-4.258L184.976 29h-4.506z"/>
  </g>
</svg>